<svg xmlns="http://www.w3.org/2000/svg" viewBox="0 0 24 24" shape-rendering="crispEdges">
  <!-- Corner spikes -->
  <rect x="0" y="0" width="2" height="2" fill="#FF5500"/>
  <rect x="22" y="0" width="2" height="2" fill="#FF5500"/>
  <rect x="0" y="22" width="2" height="2" fill="#FF5500"/>
  <rect x="22" y="22" width="2" height="2" fill="#FF5500"/>
  <!-- Outer body -->
  <rect x="2" y="2" width="20" height="20" fill="#331100"/>
  <!-- Inner body -->
  <rect x="4" y="4" width="16" height="16" fill="#663300"/>
  <!-- Glitch lines -->
  <rect x="5" y="7" width="14" height="2" fill="#FF5500"/>
  <rect x="6" y="11" width="12" height="2" fill="#FF5500"/>
  <rect x="5" y="15" width="14" height="2" fill="#FF5500"/>
  <!-- X pattern -->
  <rect x="6" y="6" width="2" height="2" fill="#994400"/>
  <rect x="8" y="8" width="2" height="2" fill="#994400"/>
  <rect x="10" y="10" width="2" height="2" fill="#994400"/>
  <rect x="12" y="12" width="2" height="2" fill="#994400"/>
  <rect x="14" y="14" width="2" height="2" fill="#994400"/>
  <rect x="16" y="16" width="2" height="2" fill="#994400"/>
  <rect x="16" y="6" width="2" height="2" fill="#994400"/>
  <rect x="14" y="8" width="2" height="2" fill="#994400"/>
  <rect x="8" y="14" width="2" height="2" fill="#994400"/>
  <rect x="6" y="16" width="2" height="2" fill="#994400"/>
  <!-- Border -->
  <rect x="2" y="2" width="20" height="1" fill="#FF5500"/>
  <rect x="2" y="21" width="20" height="1" fill="#FF5500"/>
  <rect x="2" y="2" width="1" height="20" fill="#FF5500"/>
  <rect x="21" y="2" width="1" height="20" fill="#FF5500"/>
</svg>