<svg xmlns="http://www.w3.org/2000/svg" viewBox="0 0 24 24" shape-rendering="crispEdges">
  <!-- Hair top -->
  <rect x="8" y="0" width="8" height="1" fill="#553322"/>
  <rect x="7" y="1" width="10" height="1" fill="#553322"/>
  <rect x="6" y="2" width="12" height="2" fill="#553322"/>
  <!-- Hair sides -->
  <rect x="5" y="4" width="2" height="7" fill="#553322"/>
  <rect x="17" y="4" width="2" height="7" fill="#553322"/>
  <!-- Face -->
  <rect x="7" y="4" width="10" height="7" fill="#FFCC99"/>
  <!-- Eyes -->
  <rect x="9" y="6" width="2" height="2" fill="#222222"/>
  <rect x="13" y="6" width="2" height="2" fill="#222222"/>
  <!-- Eye shine -->
  <rect x="9" y="6" width="1" height="1" fill="#FFFFFF"/>
  <rect x="13" y="6" width="1" height="1" fill="#FFFFFF"/>
  <!-- Mouth -->
  <rect x="10" y="9" width="4" height="1" fill="#222222"/>
  <!-- Neck -->
  <rect x="11" y="11" width="2" height="1" fill="#FFCC99"/>
  <!-- Shirt body -->
  <rect x="7" y="11" width="10" height="6" fill="#FF8A00"/>
  <!-- Collar -->
  <rect x="10" y="11" width="4" height="1" fill="#CC6600"/>
  <!-- Arms -->
  <rect x="4" y="12" width="3" height="5" fill="#FF8A00"/>
  <rect x="17" y="12" width="3" height="5" fill="#FF8A00"/>
  <!-- Hands -->
  <rect x="4" y="17" width="2" height="1" fill="#FFCC99"/>
  <rect x="18" y="17" width="2" height="1" fill="#FFCC99"/>
  <!-- Pants -->
  <rect x="7" y="17" width="4" height="4" fill="#444444"/>
  <rect x="13" y="17" width="4" height="4" fill="#444444"/>
  <rect x="11" y="17" width="2" height="1" fill="#444444"/>
  <!-- Shoes -->
  <rect x="6" y="21" width="5" height="2" fill="#222222"/>
  <rect x="13" y="21" width="5" height="2" fill="#222222"/>
</svg>